<?xml version="1.0" encoding="utf-8"?>
<!-- Generator: Adobe Illustrator 18.1.1, SVG Export Plug-In . SVG Version: 6.00 Build 0)  -->
<svg version="1.1" id="Layer_1" xmlns="http://www.w3.org/2000/svg" xmlns:xlink="http://www.w3.org/1999/xlink" x="0px" y="0px"
	 viewBox="0 0 103 102.7" enable-background="new 0 0 103 102.7" xml:space="preserve">
<g>
	<linearGradient id="SVGID_1_" gradientUnits="userSpaceOnUse" x1="5.4424" y1="52.9982" x2="97.3987" y2="52.9982">
		<stop  offset="0" style="stop-color:#528CCA"/>
		<stop  offset="1" style="stop-color:#416FA0"/>
	</linearGradient>
	<path fill="url(#SVGID_1_)" d="M97.4,53c0,25.5-20.5,46-46,46c-25.5,0-46-20.5-46-46c0-25.5,20.5-46,46-46
		C76.9,7,97.4,27.5,97.4,53z M55.4,93.2c-0.3,0.5-0.6,1.1-1,1.6c22.6-3,37.8-18.4,38.5-38.8c-1.3-1-3.3-2.1-3.2-2.7
		c0.3-1.5,1.7-2.8,3.3-5.2c-1.8-22.9-23-36.9-38.6-36.6c-1,1.3-2.1,3.3-2.7,3.2c-1.5-0.3-2.8-1.6-5.2-3.3C23.4,13.2,9.5,34.7,9.9,50
		c1.3,1,3.3,2.1,3.2,2.7c-0.3,1.5-1.6,2.8-3.2,5.1c2.7,20.8,18.3,36,38.6,36.7c1-1.3,1.8-3.1,2.7-3.2C52.6,91.3,54,92.5,55.4,93.2z"
		/>
	<linearGradient id="SVGID_2_" gradientUnits="userSpaceOnUse" x1="25.8379" y1="53.409" x2="76.7925" y2="53.409">
		<stop  offset="0" style="stop-color:#528CCA"/>
		<stop  offset="1" style="stop-color:#416FA0"/>
	</linearGradient>
	<path fill="url(#SVGID_2_)" d="M27.8,79.1c-0.7-0.4-1.8-0.8-1.9-1.2c-0.1-1,0.1-2.3,0.6-3.2c3.8-5.8,8.1-11.4,11.6-17.4
		c4.4-7.5,10.3-13.2,17.7-17.7c5.8-3.5,11.3-7.6,17-11.3c1-0.7,2.6-0.4,4-0.6c-0.1,1.2,0.1,2.7-0.5,3.6c-5.9,9-12,17.9-18.1,26.9
		c-0.6,0.9-1.6,1.7-2.6,2.3c-8.4,5.7-16.8,11.4-25.2,17C29.6,78,28.8,78.5,27.8,79.1z M48.1,50.2c-3.8,5.6-7.4,10.9-10.9,16.3
		c0.3,0.3,0.6,0.6,1,0.9c5.3-3.6,10.7-7.2,16.5-11.2C52.2,54,50.4,52.4,48.1,50.2z"/>
</g>
</svg>
