<?xml version="1.0" encoding="utf-8"?>
<!-- Generator: Adobe Illustrator 18.1.1, SVG Export Plug-In . SVG Version: 6.00 Build 0)  -->
<svg version="1.1" id="Layer_1" xmlns="http://www.w3.org/2000/svg" xmlns:xlink="http://www.w3.org/1999/xlink" x="0px" y="0px"
	 viewBox="0 0 103 102.7" enable-background="new 0 0 103 102.7" xml:space="preserve">
<g>
	<linearGradient id="SVGID_1_" gradientUnits="userSpaceOnUse" x1="6.1457" y1="52.6968" x2="96.8543" y2="52.6968">
		<stop  offset="0" style="stop-color:#528CCA"/>
		<stop  offset="1" style="stop-color:#416FA0"/>
	</linearGradient>
	<path fill="url(#SVGID_1_)" d="M74.4,89.4c-15.2,0-30.4,0-45.7,0c-0.2-0.2-0.5-0.3-0.7-0.6c-0.3-0.4-0.4-0.9-0.1-1.4
		c0.3-0.5,0.7-0.7,1.2-0.7c2.7,0,5.5,0,8.2,0c0.3,0,0.4-0.1,0.5-0.3c0.9-2.3,1.8-4.6,2.8-6.9c0.1-0.2,0.1-0.4,0.2-0.6
		c-0.2,0-0.3,0-0.4,0c-9.1,0-18.1,0-27.2,0c-0.4,0-0.8,0-1.2-0.1c-3.5-0.6-5.8-3.3-5.8-6.8c0-1.3,0-2.5,0-3.8c0-0.1,0-0.3-0.1-0.4
		c0-0.2,0-0.5,0-0.7c0-0.2,0.1-0.3,0.1-0.5c0-14.3,0-28.7,0-43c0-0.4,0-0.7,0-1.1c0.2-2.6,1.4-4.6,3.8-5.8c0.7-0.4,1.5-0.5,2.3-0.7
		c26.2,0,52.3,0,78.5,0c0.1,0,0.2,0.1,0.2,0.1c2.6,0.4,4.4,1.9,5.4,4.3c0.2,0.5,0.3,1.1,0.4,1.6c0,17,0,33.9,0,50.9
		c0,0.1-0.1,0.2-0.1,0.3c-0.1,0.9-0.4,1.7-0.9,2.5c-1.4,2.2-3.4,3.3-6,3.3c-9,0-18.1,0-27.1,0c-0.1,0-0.3,0-0.4,0c0,0.1,0,0.1,0,0.1
		c1,2.5,2,5,3,7.5c0.1,0.2,0.2,0.2,0.4,0.2c1.4,0,2.7,0,4.1,0c1.4,0,2.8,0,4.2,0c0.5,0,0.9,0.2,1.2,0.7c0.2,0.5,0.2,1-0.1,1.4
		C74.9,89.1,74.6,89.2,74.4,89.4z M8.8,66.1c28.5,0,57,0,85.5,0c0-0.1,0-0.2,0-0.3c0-14.3,0-28.6,0-43c0-2.5-1.8-4.3-4.3-4.3
		c-25.6,0-51.2,0-76.8,0c-2.6,0-4.4,1.8-4.4,4.4c0,14.2,0,28.4,0,42.6C8.8,65.7,8.8,65.9,8.8,66.1z M94.3,68.8c-28.5,0-57,0-85.5,0
		c0,1.2,0,2.4,0,3.6c0,0.3,0.1,0.5,0.1,0.8c0.5,1.9,2.2,3.1,4.2,3.1c16,0,32,0,48,0c9.6,0,19.2,0,28.8,0c0.2,0,0.4,0,0.5,0
		c1.7-0.1,3.2-1.3,3.7-3C94.5,71.9,94.2,70.4,94.3,68.8z M62.5,86.8c0-0.1-0.1-0.2-0.1-0.3c-1-2.4-1.9-4.9-2.9-7.3
		c-0.1-0.2-0.2-0.3-0.4-0.3c-5,0-10.1,0-15.1,0c-0.3,0-0.4,0.1-0.5,0.3c-1,2.4-1.9,4.8-2.9,7.2c0,0.1-0.1,0.2-0.1,0.3
		C47.9,86.8,55.2,86.8,62.5,86.8z"/>
	<linearGradient id="SVGID_2_" gradientUnits="userSpaceOnUse" x1="53.5938" y1="49.8266" x2="92.2862" y2="49.8266">
		<stop  offset="0" style="stop-color:#528CCA"/>
		<stop  offset="1" style="stop-color:#416FA0"/>
	</linearGradient>
	<path fill="url(#SVGID_2_)" d="M78.1,59.5c0.4,0,0.7,0,1.1,0c0-0.2,0-0.3,0-0.5c0-6.6,0-13.3,0-19.9c0-1.2,0.5-1.7,1.7-1.7
		c2.3,0,4.7,0,7,0c1.1,0,1.6,0.5,1.6,1.6c0,6.6,0,13.3,0,19.9c0,0.2,0,0.3,0,0.5c0.5,0,0.9,0,1.4,0c0.9,0,1.5,0.5,1.5,1.3
		c0,0.6-0.6,1.3-1.5,1.3c-10.1,0-20.3,0-30.4,0c-1.8,0-3.6,0-5.4,0c-1,0-1.7-0.9-1.4-1.8c0.2-0.5,0.6-0.8,1.2-0.9c0.4,0,0.9,0,1.3,0
		c0-0.2,0-0.3,0-0.5c0-3.4,0-6.7,0-10.1c0-1.1,0.5-1.6,1.6-1.6c2.4,0,4.8,0,7.3,0c1,0,1.5,0.5,1.5,1.5c0,3.4,0,6.8,0,10.2
		c0,0.1,0,0.3,0,0.5c0.4,0,0.8,0,1.2,0c0-0.2,0-0.3,0-0.5c0-4.4,0-8.9,0-13.3c0-0.2,0-0.5,0-0.7c0-0.7,0.5-1.2,1.2-1.2
		c0.2,0,0.5,0,0.7,0c2.3,0,4.5,0,6.8,0c1.1,0,1.6,0.5,1.6,1.6c0,4.6,0,9.1,0,13.7C78.1,59.2,78.1,59.3,78.1,59.5z M81.8,40.1
		c0,6.5,0,12.9,0,19.4c1.7,0,3.3,0,5,0c0-6.5,0-12.9,0-19.4C85.1,40.1,83.5,40.1,81.8,40.1z M75.5,59.5c0-4.4,0-8.8,0-13.1
		c-1.7,0-3.4,0-5,0c0,4.4,0,8.8,0,13.1C72.1,59.5,73.8,59.5,75.5,59.5z M58.9,49.9c0,3.2,0,6.4,0,9.5c1.7,0,3.4,0,5,0
		c0-3.2,0-6.4,0-9.5C62.3,49.9,60.6,49.9,58.9,49.9z"/>
	<linearGradient id="SVGID_3_" gradientUnits="userSpaceOnUse" x1="12.2012" y1="46.4912" x2="43.6138" y2="46.4912">
		<stop  offset="0" style="stop-color:#528CCA"/>
		<stop  offset="1" style="stop-color:#416FA0"/>
	</linearGradient>
	<path fill="url(#SVGID_3_)" d="M12.2,46.1c0.1-7.1,4.5-13.4,11.1-15.8c0.1,0,0.2-0.1,0.3-0.1c1-0.3,1.6,0,1.9,1
		c1.5,4.5,2.9,9,4.4,13.5c0.1,0.3,0.2,0.6,0.6,0.8c4.1,2.4,8.1,4.8,12.2,7.2c0.1,0.1,0.2,0.1,0.3,0.2c0.7,0.4,0.9,1.2,0.4,1.9
		c-2.4,3.9-5.7,6.5-10.2,7.6c-6.3,1.5-11.7-0.1-16.3-4.6c-2.7-2.7-4.1-6-4.6-9.7C12.3,47.4,12.3,46.7,12.2,46.1z M40.5,54.4
		c-0.2-0.1-0.3-0.2-0.4-0.2c-3.8-2.3-7.7-4.6-11.5-6.8c-0.5-0.3-0.7-0.6-0.9-1.1c-1.3-4-2.6-8-3.9-12c-0.1-0.4-0.3-0.8-0.4-1.2
		c-4.7,1.9-8.8,7.1-8.6,13.5c0.2,6.2,4.5,11.6,10.6,13.2C31.5,61.4,37.6,58.6,40.5,54.4z"/>
	<linearGradient id="SVGID_4_" gradientUnits="userSpaceOnUse" x1="33.6687" y1="42.9981" x2="51.7695" y2="42.9981">
		<stop  offset="0" style="stop-color:#528CCA"/>
		<stop  offset="1" style="stop-color:#416FA0"/>
	</linearGradient>
	<path fill="url(#SVGID_4_)" d="M51.8,44c0,3.4-0.8,6.1-2.2,8.7c-0.5,0.9-1.3,1.1-2.2,0.6c-4.3-2.6-8.6-5.1-12.9-7.7
		c-0.9-0.5-1-1.5-0.3-2.2c3.7-3.5,7.3-7.1,11-10.6c0.6-0.6,1.4-0.6,2,0.1C50.2,36.1,51.7,40,51.8,44z M46,35.6c-3,2.9-6,5.7-9,8.6
		c3.6,2.1,7.1,4.2,10.7,6.3C50,45.9,49.5,39.8,46,35.6z"/>
	<linearGradient id="SVGID_5_" gradientUnits="userSpaceOnUse" x1="25.988" y1="34.5596" x2="44.4706" y2="34.5596">
		<stop  offset="0" style="stop-color:#528CCA"/>
		<stop  offset="1" style="stop-color:#416FA0"/>
	</linearGradient>
	<path fill="url(#SVGID_5_)" d="M32.1,25.5c4.6,0.1,8.6,1.7,11.9,5c0.7,0.7,0.7,1.4,0,2c-3.6,3.5-7.3,7.1-10.9,10.6
		c-0.4,0.4-0.9,0.6-1.5,0.4c-0.3-0.2-0.6-0.4-0.7-0.7c-1.6-4.9-3.2-9.7-4.7-14.6c-0.3-0.9,0-1.6,1-1.9
		C28.7,25.8,30.4,25.5,32.1,25.5z M32.6,39.9c2.9-2.8,5.8-5.6,8.7-8.4c-2.3-2.6-9.4-4.4-12.3-3C30.2,32.3,31.4,36.1,32.6,39.9z"/>
	<linearGradient id="SVGID_6_" gradientUnits="userSpaceOnUse" x1="56.4669" y1="24.8884" x2="89.4131" y2="24.8884">
		<stop  offset="0" style="stop-color:#528CCA"/>
		<stop  offset="1" style="stop-color:#416FA0"/>
	</linearGradient>
	<path fill="url(#SVGID_6_)" d="M73,23.6c5,0,10,0,15,0c0.7,0,1.2,0.3,1.4,0.9c0.3,0.9-0.3,1.7-1.2,1.8c-0.1,0-0.3,0-0.4,0
		c-9.9,0-19.8,0-29.7,0c-0.6,0-1.2-0.2-1.4-0.8c-0.3-0.8,0.1-1.7,1-1.8c0.2,0,0.3,0,0.5,0C63.1,23.6,68,23.6,73,23.6z"/>
	<linearGradient id="SVGID_7_" gradientUnits="userSpaceOnUse" x1="56.4731" y1="30.6324" x2="89.4114" y2="30.6324">
		<stop  offset="0" style="stop-color:#528CCA"/>
		<stop  offset="1" style="stop-color:#416FA0"/>
	</linearGradient>
	<path fill="url(#SVGID_7_)" d="M72.9,32c-5,0-10,0-15,0c-0.8,0-1.3-0.4-1.5-1c-0.2-0.8,0.4-1.5,1.2-1.6c0.1,0,0.2,0,0.3,0
		c10,0,19.9,0,29.9,0c0.8,0,1.3,0.3,1.5,1c0.2,0.8-0.3,1.6-1.2,1.7c-0.3,0-0.5,0-0.8,0C82.6,32,77.8,32,72.9,32
		C72.9,32,72.9,32,72.9,32z"/>
</g>
</svg>
