<?xml version="1.0" encoding="utf-8"?>
<!-- Generator: Adobe Illustrator 18.1.1, SVG Export Plug-In . SVG Version: 6.00 Build 0)  -->
<svg version="1.1" id="Layer_1" xmlns="http://www.w3.org/2000/svg" xmlns:xlink="http://www.w3.org/1999/xlink" x="0px" y="0px"
	 viewBox="0 0 103 102.7" enable-background="new 0 0 103 102.7" xml:space="preserve">
<g>
	<linearGradient id="SVGID_1_" gradientUnits="userSpaceOnUse" x1="5.6854" y1="76.7558" x2="99.2287" y2="76.7558">
		<stop  offset="0" style="stop-color:#528CCA"/>
		<stop  offset="1" style="stop-color:#416FA0"/>
	</linearGradient>
	<path fill="url(#SVGID_1_)" d="M78.2,61.3c1.6-0.3,3-0.7,4.4-0.8c2.2-0.2,4.8,0.6,5.9,3.5c0.9-0.1,1.8-0.3,2.7-0.3
		c1.7-0.1,3.4,0.1,4.9,1c3,1.6,3.7,4.8,2.6,7.7c-0.2,0.4-0.6,0.9-1,1.1c-5.9,4-11.8,7.9-17.7,11.8c-4.8,3.2-9.7,6.1-15,8.3
		c-5.6,2.2-11.5,3.2-17.5,2.8c-5.6-0.4-11-1.8-16.1-4c-1.6-0.7-3.2-0.6-4.8-0.9c-6.3-0.9-11.8-3.4-16.2-8.1
		c-2.5-2.6-4.3-5.7-4.6-9.4c-0.4-3.6,0.7-6.8,3.3-9.3c4.3-4,9.5-6.7,15.4-7.4c3.2-0.4,6.4,0.4,9.4,1.5c3.3,1.3,6.3,3,9.4,4.7
		c1.4,0.8,2.9,1.6,4.4,2.3c3.6,1.7,7.3,1.7,10.9,0.1c3-1.4,5.9-2.9,8.8-4.3c1.9-0.9,4-1.6,6.1-1.9C75.4,59.4,77.1,59.8,78.2,61.3z
		 M63,68.5c0.5,0.2,0.8,0.3,1.2,0.4c1.9,0.7,3.7,1.4,5.2,2.7c1.5,1.3,2.4,2.8,2.2,4.8c-0.2,2.1-1.4,3.4-3.1,4.5
		c-2.3,1.4-4.9,1.8-7.6,1.8c-4.4,0.1-8.7-0.5-12.9-1.7c-3.9-1.2-7.8-2.6-11.7-3.9c-1.1-0.4-1.6-1.5-1.3-2.7c0.3-1.1,1.5-1.7,2.7-1.4
		c0.8,0.2,1.6,0.5,2.3,0.8c4.9,1.8,9.9,3.6,15.2,4.3c2.8,0.3,5.6,0.6,8.5,0.1c1.1-0.2,2.3-0.5,3.2-1.3c0.6-0.5,0.6-0.9,0.1-1.5
		c-0.3-0.3-0.7-0.7-1.1-0.9c-2.4-1.4-4.9-2.1-7.7-2.2c-2.7-0.1-5.4-0.3-8.1-1c-3.1-0.8-5.9-2.1-8.7-3.7c-3-1.8-6-3.5-9.3-4.7
		c-2.5-0.9-5.1-1.5-7.8-1.1c-4.3,0.7-8,2.8-11.4,5.4c-2.7,2.1-3.5,5.2-2.4,8.5c0.9,2.8,2.7,4.9,5,6.7c4.1,3.3,8.9,5,14.2,5.2
		c0.6,0,1.2,0.1,1.7,0.3c1.3,0.4,2.5,1,3.8,1.4c4.1,1.5,8.2,2.5,12.6,2.8c5.8,0.4,11.3-0.6,16.6-2.8c5-2.1,9.6-5,14.2-8
		c5.3-3.5,10.6-7.1,16-10.7c0.7-0.4,0.8-0.9,0.4-1.5c-0.3-0.4-0.7-0.7-1.1-0.8C92.8,68,91.8,67.9,91,68c-1.4,0.3-2.8,0.7-4.1,1.2
		c-0.9,0.3-1.8,0.2-2.4-0.5c-0.6-0.7-0.8-1.5-0.4-2.4c0.1-0.2,0.2-0.4,0.3-0.6c0.2-0.4,0-0.8-0.4-0.8c-0.5-0.1-1-0.1-1.4-0.1
		c-1.6,0.2-2.9,0.9-4.2,1.7c-1.6,1-3.3,0.1-3.4-1.8c0-0.3,0-0.5-0.1-0.9C70.3,64.2,66.9,66.8,63,68.5z"/>
	<linearGradient id="SVGID_2_" gradientUnits="userSpaceOnUse" x1="26.2814" y1="32.9365" x2="78.5159" y2="32.9365">
		<stop  offset="0" style="stop-color:#528CCA"/>
		<stop  offset="1" style="stop-color:#416FA0"/>
	</linearGradient>
	<path fill="url(#SVGID_2_)" d="M52.3,6.8c14.5,0,26.2,11.6,26.2,26.1c0,14.4-11.7,26.1-26.1,26.1C38,59,26.3,47.3,26.3,32.9
		C26.3,18.6,38,6.8,52.3,6.8z M52.3,54.8c12.1,0,21.9-9.8,21.9-21.8c0-12.2-9.7-21.9-22-21.9c-11.8,0-21.6,9.9-21.6,21.8
		C30.6,44.9,40.4,54.8,52.3,54.8z"/>
	<linearGradient id="SVGID_3_" gradientUnits="userSpaceOnUse" x1="43.4939" y1="32.9256" x2="61.3311" y2="32.9256">
		<stop  offset="0" style="stop-color:#528CCA"/>
		<stop  offset="1" style="stop-color:#416FA0"/>
	</linearGradient>
	<path fill="url(#SVGID_3_)" d="M54.3,16.3c0,0.6,0,1.1,0,1.6c3.7,0.7,5.8,2.9,6.4,6.6c-1.1,0.2-2.2,0.4-3.4,0.5
		c-0.4-1.9-1-3.4-3-4.1c0,0.1-0.1,0.2-0.1,0.3c0,2.9,0,5.8,0,8.6c0,0.4,0.2,0.6,0.6,0.7c1,0.4,2.1,0.7,3.1,1.2
		c2.6,1.5,3.6,3.9,3.4,6.8c-0.1,3.6-2.5,6.9-7,7.7c0,1.1,0,2.2,0,3.4c-1.2,0-2.3,0-3.5,0c0-1.1,0-2.2,0-3.4c-2.3-0.4-4.2-1.1-5.6-3
		c-1-1.5-1.6-3.1-1.7-5c1.1-0.2,2.2-0.4,3.3-0.7c0.4,2.5,1.2,4.8,3.9,5.8c0-0.3,0.1-0.5,0.1-0.7c0-3,0-6.1,0-9.1
		c0-0.5-0.2-0.7-0.6-0.9c-1.3-0.6-2.6-1.1-3.7-1.9c-2.3-1.7-2.8-4.3-2.3-7c0.5-2.8,2.1-4.6,4.8-5.5c0.5-0.2,1.1-0.3,1.8-0.4
		c0-0.5,0-1,0-1.6C52,16.3,53.1,16.3,54.3,16.3z M54.3,43.3c2.2-0.4,3.7-2.7,3.6-5.4c-0.1-2.1-1.6-3.7-3.6-3.9
		C54.3,37.1,54.3,40.2,54.3,43.3z M50.7,20.8c-2,0.4-3.4,2.3-3.4,4.3c0,2.2,1.4,3.9,3.4,4.2C50.7,26.5,50.7,23.7,50.7,20.8z"/>
</g>
</svg>
