<?xml version="1.0" encoding="utf-8"?>
<!-- Generator: Adobe Illustrator 18.1.1, SVG Export Plug-In . SVG Version: 6.00 Build 0)  -->
<svg version="1.1" id="Layer_1" xmlns="http://www.w3.org/2000/svg" xmlns:xlink="http://www.w3.org/1999/xlink" x="0px" y="0px"
	 viewBox="0 0 103 65.3" enable-background="new 0 0 103 65.3" xml:space="preserve">
<g>
	<linearGradient id="SVGID_1_" gradientUnits="userSpaceOnUse" x1="3.311" y1="34.7618" x2="99.689" y2="34.7618">
		<stop  offset="0" style="stop-color:#528CCA"/>
		<stop  offset="1" style="stop-color:#416FA0"/>
	</linearGradient>
	<path fill="url(#SVGID_1_)" d="M51.5,45.9c0.4-0.5,0.5-0.7,0.7-1C64,33.1,75.8,21.4,87.5,9.6c1.8-1.8,3.9-2.7,6.5-2.3
		c5,0.8,7.4,7,4.3,10.9c-0.4,0.5-0.8,0.9-1.2,1.4C83.6,33,70.2,46.5,56.8,59.9c-2.2,2.2-4.7,3.1-7.7,1.9c-1-0.4-2-1.1-2.8-1.9
		C32.7,46.4,19.2,32.8,5.6,19.3c-2.7-2.7-3.1-6.6-0.9-9.4C7.4,6.6,12,6.3,15.2,9.4c0.2,0.2,0.3,0.3,0.5,0.5
		c11.7,11.7,23.4,23.4,35,35C51,45.1,51.2,45.4,51.5,45.9z"/>
</g>
</svg>
