<?xml version="1.0" encoding="utf-8"?>
<!-- Generator: Adobe Illustrator 18.1.1, SVG Export Plug-In . SVG Version: 6.00 Build 0)  -->
<svg version="1.1" id="Layer_1" xmlns="http://www.w3.org/2000/svg" xmlns:xlink="http://www.w3.org/1999/xlink" x="0px" y="0px"
	 viewBox="0 0 350 96.9" enable-background="new 0 0 350 96.9" xml:space="preserve">
<g>
	<path fill="#FFFFFF" d="M97.4,10.7c0.6,0,1,0,1.4,0c17,0,33.9,0,50.9,0c12.7,0,22.8,11.4,21.3,24c-0.5,4.8-2.2,9-5.5,12.6
		c-0.5,0.6-0.3,0.9,0.1,1.4c9.3,10.8,6.3,27.1-6.3,33.8c-3.1,1.6-6.4,2.5-9.9,2.5c-13.6,0-27.2,0-40.8,0c-0.9,0-1.5-0.2-2-1
		c-2.9-3.8-5.8-7.5-8.7-11.3c-0.2-0.3-0.7-0.5-0.4-0.9c0.2-0.3,0.7-0.2,1-0.2c16.8,0,33.7,0,50.5,0c4.6,0,8-2.9,8.8-7.4
		c0.8-4.9-3.2-9.7-8.2-9.7c-9.4,0-18.8,0-28.2,0c-1,0-1.6-0.3-2.1-1.1c-2.7-3.8-5.4-7.5-8.1-11.3c-0.2-0.2-0.3-0.5-0.5-0.8
		c0.5-0.3,1-0.2,1.5-0.2c12.4,0,24.8,0,37.2,0c4.3,0,7.9-3,8.6-7.1c0.7-4.1-1.7-8.1-5.7-9.6c-1.2-0.4-2.5-0.5-3.8-0.5
		c-13.6,0-27.2,0-40.8,0c-0.9,0-1.5-0.2-2-1c-2.6-3.9-5.2-7.7-7.8-11.5C97.8,11.4,97.7,11.2,97.4,10.7z"/>
	<path fill="#FFFFFF" d="M73.5,57.4c0-0.7,0-1.1,0-1.6c0-10.7,0-21.4,0-32.2c0-0.9,0.2-1.5,0.9-2.1c4.1-3.6,8.1-7.2,12.3-11
		c0,24.6,0,49.1,0,73.8c-20.1-15.5-40.2-31-60.5-46.6c0,0.7,0,1.2,0,1.6c0,10.3,0,20.6,0,31c0,0.8-0.2,1.4-0.8,2
		c-4,3.8-7.9,7.7-11.9,11.5c-0.1,0.1-0.3,0.2-0.6,0.5c0-24.5,0-48.9,0-73.7C33.1,26.3,53.2,41.8,73.5,57.4z"/>
	<path fill="#FFFFFF" d="M205.3,47.7c-3.8-3-7.5-5.8-11.3-8.7c-4.6-3.6-9.3-7.2-14-10.8c-0.5-0.4-0.8-0.7-0.8-1.4
		c0-5.1,0-10.2,0-15.4c0-0.1,0-0.3,0.1-0.6c2.5,1.9,4.8,3.7,7.1,5.5c9.6,7.4,19.2,14.8,28.8,22.2c0.9,0.7,1.3,0.3,1.9-0.2
		c11.6-9,23.3-18,34.9-27c0.3-0.2,0.6-0.4,1.1-0.8c0,2.6,0,5.1,0,7.5c0,2.7,0,5.4,0,8.2c0,0.8-0.3,1.3-0.9,1.8
		c-8.1,6.2-16.2,12.5-24.3,18.7c-0.9,0.7-0.9,0.9,0,1.6c8.2,6.2,16.3,12.5,24.4,18.8c0.5,0.3,0.8,0.6,0.8,1.3c0,5.2,0,10.4,0,15.6
		c0,0.1-0.1,0.2-0.1,0.5c-1.9-1.5-3.8-2.9-5.6-4.3c-10.1-7.8-20.2-15.6-30.3-23.4c-0.8-0.7-1.3-0.6-2.1,0
		c-11.4,8.9-22.8,17.7-34.2,26.5c-0.4,0.3-0.9,0.7-1.4,1c-0.3-0.5-0.2-0.9-0.2-1.3c0-4.7,0-9.4,0-14.2c0-0.9,0.3-1.4,1-2
		C188.6,60.7,196.9,54.2,205.3,47.7z"/>
	<path fill="#FFFFFF" d="M304.4,84.5c-2.9-2.6-5.6-5-8.3-7.4c-1.4-1.3-2.8-2.5-4.2-3.7c-0.6-0.5-0.8-1.1-0.8-1.9
		c0-15.4,0-30.7,0-46.1c0-1.8,0.2-1.6-1.6-1.6c-5.9,0-11.8,0-17.6,0c-0.8,0-1.3-0.2-1.8-0.9c-3-4.1-6.1-8.1-9.3-12.3
		c24.6,0,49.1,0,73.6,0c0,0.4-0.3,0.6-0.5,0.9c-3.2,3.8-6.4,7.6-9.5,11.4c-0.5,0.6-1.1,0.9-1.9,0.9c-5.6,0-11.3,0-16.9,0
		c-1,0-1.2,0.3-1.2,1.3c0,19.3,0,38.6,0,57.8C304.4,83.3,304.4,83.8,304.4,84.5z"/>
</g>
</svg>
