<?xml version="1.0" encoding="utf-8"?>
<!-- Generator: Adobe Illustrator 18.1.1, SVG Export Plug-In . SVG Version: 6.00 Build 0)  -->
<svg version="1.1" id="Layer_1" xmlns="http://www.w3.org/2000/svg" xmlns:xlink="http://www.w3.org/1999/xlink" x="0px" y="0px"
	 viewBox="0 0 103 102.7" enable-background="new 0 0 103 102.7" xml:space="preserve">
<g>
	<linearGradient id="SVGID_1_" gradientUnits="userSpaceOnUse" x1="23.422" y1="51.3873" x2="81.4948" y2="51.3873">
		<stop  offset="0" style="stop-color:#528CCA"/>
		<stop  offset="1" style="stop-color:#416FA0"/>
	</linearGradient>
	<path fill="url(#SVGID_1_)" d="M79.9,41c-0.6,0.5-1.1,1.1-1.7,1.4c-2.2,0.9-3,2.3-2,4.6c0.2,0.4,0.2,1,0.2,1.5
		c-0.1,2.3,0.9,3.5,3.2,3.7c1.8,0.1,2.4,0.9,1.8,2.8c-0.7,2.2-1.2,4.5-1.7,6.7c-0.3,1.4-0.9,2.3-2.6,1.5c-2.2-1-3.9-0.5-4.9,1.8
		c-0.3,0.6-0.7,1.2-1.2,1.6c-1.6,1.3-1.5,2.6-0.3,4c1.5,1.8,1.2,2.9-0.9,3.9c-1.9,0.9-3.7,2.1-5.5,3.3c-1.4,0.9-2.1,0.7-3-0.7
		c-0.6-1-1.5-2.5-2.3-2.5c-2.2,0-4.4,0.4-6.5,1.1c-0.6,0.2-0.8,1.9-1,2.9c-0.3,1.6-1,2-2.6,1.5c-2.3-0.7-4.6-1.2-7-1.7
		c-1.5-0.3-2.2-1-1.4-2.6c1.1-2.3,0.4-3.9-1.9-4.9c-0.5-0.2-1-0.6-1.4-1c-1.3-1.6-2.7-1.7-4.2-0.4c-1.8,1.6-2.9,1.1-3.9-1
		c-1-2-2.4-3.8-3.3-5.8c-0.3-0.6,0.1-2.2,0.5-2.3c3.3-1.2,2.8-3.4,2.5-6.1c-0.3-2.6-1-4-3.7-4.1c-0.2,0-0.4,0-0.5-0.1
		c-0.4-0.7-1.1-1.4-1-2c0.5-2.5,1.2-5,1.8-7.5c0.3-1.3,0.9-2.2,2.4-1.4c2.5,1.2,4.2,0.3,5.3-2.1c0.2-0.5,0.6-1,1.1-1.4
		c1.5-1.2,1.4-2.5,0.3-3.8c-1.5-1.8-1.3-3.1,1-4.1c1.9-0.9,3.7-2.1,5.5-3.3c1.3-0.8,2.2-0.7,2.7,0.7c0.9,2.4,2.4,2.8,5,2.4
		c2.9-0.4,5-0.9,5.2-4.4c0-0.4,1.4-1,2-0.9c2.5,0.5,5,1.2,7.5,1.8c1.4,0.3,2.1,1,1.4,2.5c-1.1,2.3-0.6,4.1,1.9,5.1
		c0.4,0.2,0.9,0.5,1.2,0.9c1.4,1.7,2.8,1.8,4.4,0.4c1.7-1.5,2.8-1.1,3.8,0.9c0.9,1.9,2.2,3.7,3.3,5.5C79.2,39.9,79.5,40.3,79.9,41z
		 M61.4,40.3c-5.4-4.9-14-4.5-19.3,0.9c-5.3,5.5-5.5,14.2-0.3,19.7c5.4,5.7,13.9,6.2,19.9,1.2c4.8-4,6.8-12.6,2.9-16.8
		c-0.5,1.2-1,2.6-0.8,3.8c0.9,6.9-3.8,13.1-10.3,13.5c-7.2,0.5-12.7-4.7-12.6-11.8c0.1-6.8,6-11.9,13-11c2,0.3,4,1.3,6.1,2.1
		C60.4,41.6,60.9,41,61.4,40.3z M52.1,53.9c-1.7-2.1-3.1-4.1-4.8-5.9c-0.4-0.5-1.5-0.3-2.3-0.4c0.1,0.7-0.1,1.7,0.2,2.2
		c1.6,2.2,3.4,4.2,5,6.4c1.3,1.7,2.3,1.7,3.7,0c3.3-4.1,6.8-8.1,10.2-12.1c1.1-1.3,2.3-2.6,3.3-4c0.3-0.5,0-1.4-0.1-2.1
		c-0.7,0.1-1.4,0.1-2,0.4c-0.5,0.2-0.8,0.8-1.1,1.3C60.2,44.3,56.2,49,52.1,53.9z"/>
	<linearGradient id="SVGID_2_" gradientUnits="userSpaceOnUse" x1="7.0246" y1="31.1591" x2="93.8894" y2="31.1591">
		<stop  offset="0" style="stop-color:#528CCA"/>
		<stop  offset="1" style="stop-color:#416FA0"/>
	</linearGradient>
	<path fill="url(#SVGID_2_)" d="M21,38.1c-3.2,5-6.4,9.9-9.8,15.3C9.8,47.3,8.4,41.8,7,35.9c1.8,1,3.3,1.8,4.9,2.7
		C14.4,31.1,18.4,25,24,19.8C47.1-1.5,85.8,10,93.5,40.5c0.1,0.6,0.5,1.2,0.4,1.7c-0.3,0.8-0.7,1.7-1.4,2c-0.4,0.2-1.4-0.5-1.9-1.1
		c-0.4-0.5-0.4-1.2-0.6-1.9C86,25.7,71.5,13.7,56.3,12.5C36.8,11,22,22.6,16.3,36.9c-0.2,0.6-0.4,1.2-0.7,2.2
		C17.5,38.7,19.2,38.4,21,38.1z"/>
	<linearGradient id="SVGID_3_" gradientUnits="userSpaceOnUse" x1="11.2188" y1="71.683" x2="97.7333" y2="71.683">
		<stop  offset="0" style="stop-color:#528CCA"/>
		<stop  offset="1" style="stop-color:#416FA0"/>
	</linearGradient>
	<path fill="url(#SVGID_3_)" d="M89.2,63.9c-2.1,0.4-3.7,0.7-5.5,1c3.2-5.1,6.4-10,9.8-15.3c1.4,6,2.8,11.6,4.2,17.6
		c-1.8-1-3.2-1.8-4.9-2.7c-2.1,5.7-4.8,10.8-8.8,15C72.6,91.8,58.5,96.3,42.3,92.4c-16-3.9-26.1-14.4-30.8-30.1
		c-0.1-0.3-0.3-0.7-0.2-1c0.3-0.9,0.8-1.7,1.2-2.6c0.7,0.6,1.9,1.1,2.1,1.9c1.5,5.4,3.8,10.3,7.3,14.8C40,98.7,77.2,93.6,88.4,66.3
		C88.6,65.7,88.8,65.1,89.2,63.9z"/>
</g>
</svg>
