<?xml version="1.0" encoding="utf-8"?>
<!-- Generator: Adobe Illustrator 18.1.1, SVG Export Plug-In . SVG Version: 6.00 Build 0)  -->
<svg version="1.1" id="Layer_1" xmlns="http://www.w3.org/2000/svg" xmlns:xlink="http://www.w3.org/1999/xlink" x="0px" y="0px"
	 viewBox="0 0 103 102.7" enable-background="new 0 0 103 102.7" xml:space="preserve">
<g>
	<linearGradient id="SVGID_1_" gradientUnits="userSpaceOnUse" x1="7.9606" y1="64.3212" x2="66.7413" y2="64.3212">
		<stop  offset="0" style="stop-color:#528CCA"/>
		<stop  offset="1" style="stop-color:#416FA0"/>
	</linearGradient>
	<path fill="url(#SVGID_1_)" d="M37.4,94.8c-8.8,0-17.7-0.1-26.5,0c-3,0-3.2-1.2-2.8-3.5c0.7-4.6,3.4-7.9,7.4-10.1
		c2.1-1.2,4.4-2.1,6.7-3.1c0.6-0.3,1.3-0.6,1.9-0.9c3.5-1.8,4.7-3.6,3.4-7.2c-0.9-2.3-2.5-4.3-3.2-6.8c0-0.1-0.3-0.2-0.4-0.3
		c-2-0.5-2.6-2.1-2.6-3.7c-0.1-1.6,0.4-3.1,0.6-4.7c0.1-0.5,0.1-1.1,0-1.5c-0.8-3-1.1-6.1-0.1-9.1c1.5-4.8,5-7.6,9.7-8.9
		c2-0.6,4.2-0.7,6.3-1c1.4-0.2,2.4,0.4,3,1.7c0.4,0.7,0.8,1.2,1.7,1.4c5.9,1.3,9.4,6.7,8.4,12.7c-0.1,0.3-0.1,0.6-0.2,0.9
		c-0.6,2-0.7,4,0.1,6c0.6,1.6,0.2,3.5-0.8,5c-0.3,0.4-0.7,1-1.1,1.1c-1.2,0.2-1.3,1.1-1.7,1.9c-0.6,1.5-1.2,3-2.1,4.3
		c-1.5,2.2-0.9,6.2,1.5,7.4c2.5,1.2,5.1,2.2,7.6,3.2c3.3,1.3,6.6,2.8,9.1,5.5c2,2.2,3.1,4.8,3.3,7.7c0.1,1.5-0.6,2.2-2.3,2.2
		C55.4,94.9,46.4,94.8,37.4,94.8z M12.2,91.1c16.8,0,33.5,0,50.3,0c-0.5-2-1.3-3.7-3-4.7c-2.5-1.5-5.2-2.7-7.9-3.9
		c-2.6-1.2-5.3-2.2-7.8-3.6c-2.1-1.2-3.3-3-3.1-5.7c0.1-1.3,0-2.7,0.1-4c0-0.5,0.2-1.2,0.6-1.6c1.7-1.6,2.4-3.7,3-5.9
		c0.2-0.7,0.8-1.4,1.4-1.7c1.5-0.7,2.2-2.6,1-3.9c-0.8-0.9-0.7-1.7-0.5-2.7c0.4-2.1,1-4.2,1-6.3c0-4-2.5-6.5-6.5-6.9
		c-0.7-0.1-1.7-0.5-1.9-1c-0.7-1.5-1.7-1.6-3.1-1.4c-0.6,0.1-1.2,0.2-1.9,0.3c-4.2,0.9-7.6,2.8-8.8,7.4c-0.7,2.7,0,5.2,0.7,7.8
		c0.3,1.1,0.3,2-0.5,3c-1,1-0.5,3.5,0.5,3.6c1.3,0.2,1.7,1,2.1,2.1c0.5,1.6,1,3.4,2.1,4.6c1.3,1.5,1.6,3,1.5,4.8
		c0,0.6-0.1,1.2,0,1.7c0.3,2.6-1,4.6-3,5.9c-2,1.2-4.1,2.1-6.2,3.2c-2.2,1.1-4.4,2.1-6.5,3.4C13.7,86.8,12.6,88.7,12.2,91.1z"/>
	<linearGradient id="SVGID_2_" gradientUnits="userSpaceOnUse" x1="30.0767" y1="41.2473" x2="93" y2="41.2473">
		<stop  offset="0" style="stop-color:#528CCA"/>
		<stop  offset="1" style="stop-color:#416FA0"/>
	</linearGradient>
	<path fill="url(#SVGID_2_)" d="M33.8,13.6c0,4.8,0,9.5,0,14.2c0,1-0.2,1.8-1.2,2.2c-1.3,0.5-2.4-0.4-2.5-1.9c-0.1-1.3,0-2.5,0-3.8
		c0-3.9,0-7.9,0-11.8c0-2.1,0.6-2.7,2.7-2.7c19.2,0,38.5,0,57.7,0c2,0,2.5,0.5,2.5,2.6c0,19.2,0,38.5,0,57.7c0,2.1-0.6,2.7-2.7,2.7
		c-13,0-25.9,0-38.9,0c-0.3,0-0.5,0-0.8,0c-1.3-0.1-2-0.9-2-1.9c0-1,0.9-1.8,2.1-1.8c6.8,0,13.5,0,20.3,0c5.6,0,11.2,0,16.8,0
		c0.4,0,0.9,0,1.4,0c0-18.5,0-36.9,0-55.4C70.8,13.6,52.4,13.6,33.8,13.6z"/>
	<linearGradient id="SVGID_3_" gradientUnits="userSpaceOnUse" x1="39.4144" y1="24.5898" x2="69.0112" y2="24.5898">
		<stop  offset="0" style="stop-color:#528CCA"/>
		<stop  offset="1" style="stop-color:#416FA0"/>
	</linearGradient>
	<path fill="url(#SVGID_3_)" d="M54.2,22.7c4.1,0,8.2,0,12.4,0c1.5,0,2.4,0.6,2.4,1.8c0.1,1.2-0.9,1.9-2.4,1.9c-8.3,0-16.6,0-24.8,0
		c-1.6,0-2.4-0.7-2.3-1.9c0-1.2,0.8-1.8,2.3-1.8C45.9,22.7,50.1,22.7,54.2,22.7z"/>
	<linearGradient id="SVGID_4_" gradientUnits="userSpaceOnUse" x1="72.6549" y1="22.7404" x2="85.4966" y2="22.7404">
		<stop  offset="0" style="stop-color:#528CCA"/>
		<stop  offset="1" style="stop-color:#416FA0"/>
	</linearGradient>
	<path fill="url(#SVGID_4_)" d="M77.9,23.8c1.5-2,2.7-3.7,4.1-5.4c0.4-0.5,1.1-1.1,1.7-1.1c0.5-0.1,1.4,0.4,1.6,0.9
		c0.3,0.5,0.3,1.5,0,2c-1.8,2.6-3.7,5.1-5.6,7.5c-0.7,0.9-1.8,1-2.7,0.1c-1.3-1.2-2.5-2.4-3.7-3.7c-0.7-0.8-0.8-1.7,0-2.5
		c0.8-0.9,1.8-0.8,2.6,0C76.5,22.1,77.1,22.9,77.9,23.8z"/>
	<linearGradient id="SVGID_5_" gradientUnits="userSpaceOnUse" x1="72.6538" y1="39.3436" x2="85.5468" y2="39.3436">
		<stop  offset="0" style="stop-color:#528CCA"/>
		<stop  offset="1" style="stop-color:#416FA0"/>
	</linearGradient>
	<path fill="url(#SVGID_5_)" d="M77.9,40.4c1.6-2.1,2.9-3.9,4.3-5.7c1.1-1.3,2.8-1.1,3.2,0.5c0.1,0.5,0,1.3-0.4,1.7
		c-1.7,2.4-3.5,4.8-5.4,7.2c-0.8,1-2,1.1-2.9,0.2c-1.2-1.2-2.5-2.4-3.6-3.6c-0.8-0.8-0.9-1.8,0-2.6c0.8-0.8,1.8-0.7,2.6,0.1
		C76.6,38.8,77.2,39.6,77.9,40.4z"/>
	<linearGradient id="SVGID_6_" gradientUnits="userSpaceOnUse" x1="72.6798" y1="55.9921" x2="85.6184" y2="55.9921">
		<stop  offset="0" style="stop-color:#528CCA"/>
		<stop  offset="1" style="stop-color:#416FA0"/>
	</linearGradient>
	<path fill="url(#SVGID_6_)" d="M77.9,57c1.5-2,2.8-3.7,4.1-5.4c0.9-1.2,1.9-1.5,2.8-0.8c1,0.7,1,1.8,0.1,3
		c-1.7,2.3-3.4,4.5-5.1,6.8c-0.9,1.2-2,1.3-3.1,0.3c-1.2-1.1-2.3-2.2-3.4-3.4c-0.9-0.9-0.9-2-0.1-2.8C74,54,75.1,54,76,54.8
		C76.6,55.5,77.2,56.2,77.9,57z"/>
	<linearGradient id="SVGID_7_" gradientUnits="userSpaceOnUse" x1="54.2156" y1="41.2401" x2="68.9993" y2="41.2401">
		<stop  offset="0" style="stop-color:#528CCA"/>
		<stop  offset="1" style="stop-color:#416FA0"/>
	</linearGradient>
	<path fill="url(#SVGID_7_)" d="M61.7,39.4c1.7,0,3.5,0,5.2,0c1.2,0,2.1,0.7,2.1,1.8c0,1.2-0.8,1.9-1.9,1.9c-3.7,0.1-7.4,0.1-11.1,0
		c-1.1,0-1.9-0.7-1.8-1.9c0.1-1.2,0.8-1.7,2-1.7C58,39.4,59.8,39.4,61.7,39.4C61.7,39.4,61.7,39.4,61.7,39.4z"/>
	<linearGradient id="SVGID_8_" gradientUnits="userSpaceOnUse" x1="54.2084" y1="57.8907" x2="69.0106" y2="57.8907">
		<stop  offset="0" style="stop-color:#528CCA"/>
		<stop  offset="1" style="stop-color:#416FA0"/>
	</linearGradient>
	<path fill="url(#SVGID_8_)" d="M61.4,59.7c-1.7,0-3.3,0-5,0c-1.5,0-2.3-0.7-2.3-1.9c0-1.2,0.7-1.8,2.3-1.8c3.4,0,6.8,0,10.2,0
		c1.5,0,2.3,0.7,2.3,1.8c0,1.1-0.8,1.8-2.2,1.8C65,59.8,63.2,59.7,61.4,59.7z"/>
</g>
</svg>
