<?xml version="1.0" encoding="utf-8"?>
<!-- Generator: Adobe Illustrator 18.1.1, SVG Export Plug-In . SVG Version: 6.00 Build 0)  -->
<svg version="1.1" id="Layer_1" xmlns="http://www.w3.org/2000/svg" xmlns:xlink="http://www.w3.org/1999/xlink" x="0px" y="0px"
	 viewBox="0 0 103 102.7" enable-background="new 0 0 103 102.7" xml:space="preserve">
<g>
	<linearGradient id="SVGID_1_" gradientUnits="userSpaceOnUse" x1="5.4334" y1="50.59" x2="98.9767" y2="50.59">
		<stop  offset="0" style="stop-color:#528CCA"/>
		<stop  offset="1" style="stop-color:#416FA0"/>
	</linearGradient>
	<path fill="url(#SVGID_1_)" d="M52.1,92.1c-12.8,0-25.7,0-38.5,0c-4.4,0-7.5-2.7-8.1-7.1c-0.2-1.7,0.3-3.3,1.1-4.8
		c7.8-13.6,15.7-27.1,23.5-40.7c5-8.7,10-17.4,15-26.1c2.1-3.6,5.5-5.1,9.2-4.1c2,0.6,3.5,1.8,4.6,3.6c4.4,7.5,8.7,15.1,13.1,22.6
		c8.5,14.7,17,29.5,25.5,44.2c1.8,3,2,6,0,9c-1.5,2.3-3.8,3.4-6.6,3.4C78,92.1,65.1,92.1,52.1,92.1z M52.2,86c12.5,0,25,0,37.5,0
		c0.5,0,1,0,1.5,0c1.3-0.1,1.9-1.2,1.4-2.4c-0.2-0.4-0.4-0.7-0.6-1.1c-4.8-8.3-9.5-16.5-14.3-24.8c-8-13.8-15.9-27.5-23.9-41.3
		c-1-1.7-2.3-1.7-3.3,0c-3.1,5.3-6.1,10.6-9.1,15.8C31.7,49.2,21.9,66,12.2,82.9C11,84.9,11.7,86,14,86C26.8,86,39.5,86,52.2,86z"/>
	<linearGradient id="SVGID_2_" gradientUnits="userSpaceOnUse" x1="47.7056" y1="49.1563" x2="56.6771" y2="49.1563">
		<stop  offset="0" style="stop-color:#528CCA"/>
		<stop  offset="1" style="stop-color:#416FA0"/>
	</linearGradient>
	<path fill="url(#SVGID_2_)" d="M47.7,38.1c0-0.2,0-0.4,0-0.6c0.1-3,1.8-4.6,4.5-4.7c2.7,0,4.5,1.6,4.5,4.6c0,2.2-0.3,4.5-0.5,6.7
		C55.6,50,55,55.8,54.5,61.7c-0.1,0.6-0.1,1.2-0.2,1.8c-0.2,1.1-1,2-2,2c-1,0-2-0.8-2.1-2c-0.4-3.6-0.7-7.2-1.1-10.8
		c-0.4-4.5-0.9-9-1.3-13.4C47.7,38.8,47.7,38.4,47.7,38.1C47.7,38.1,47.7,38.1,47.7,38.1z"/>
	<linearGradient id="SVGID_3_" gradientUnits="userSpaceOnUse" x1="47.5624" y1="74.19" x2="56.699" y2="74.19">
		<stop  offset="0" style="stop-color:#528CCA"/>
		<stop  offset="1" style="stop-color:#416FA0"/>
	</linearGradient>
	<path fill="url(#SVGID_3_)" d="M52.1,78.7c-2.5,0-4.6-2-4.6-4.5c0-2.5,2.1-4.5,4.6-4.5c2.5,0,4.6,2.1,4.6,4.6
		C56.7,76.7,54.6,78.7,52.1,78.7z"/>
</g>
</svg>
